<?xml version="1.0" encoding="UTF-8" standalone="no"?>
<!DOCTYPE svg PUBLIC "-//W3C//DTD SVG 1.1//EN" "http://www.w3.org/Graphics/SVG/1.1/DTD/svg11.dtd">
<svg width="100%" height="100%" viewBox="0 0 405 757" version="1.1" xmlns="http://www.w3.org/2000/svg" xmlns:xlink="http://www.w3.org/1999/xlink" xml:space="preserve" xmlns:serif="http://www.serif.com/" style="fill-rule:evenodd;clip-rule:evenodd;stroke-linejoin:round;stroke-miterlimit:2;">
    <g transform="matrix(1,0,0,1,-848,-506)">
        <g transform="matrix(1.38509,0,0,0.968031,-720.342,-220.991)">
            <path d="M1198,925.359L1198,808.591C1198,776.806 1216.04,751 1238.25,751L1318.75,751C1340.96,751 1359,776.806 1359,808.591L1359,925.359C1334.99,907.041 1307.59,896.657 1278.5,896.657C1249.41,896.657 1222.01,907.041 1198,925.359ZM1359,1358.64L1359,1475.41C1359,1507.19 1340.96,1533 1318.75,1533L1238.25,1533C1216.04,1533 1198,1507.19 1198,1475.41L1198,1358.64C1222.01,1376.96 1249.41,1387.34 1278.5,1387.34C1307.59,1387.34 1334.99,1376.96 1359,1358.64ZM1278.5,932.812C1359.19,932.812 1424.7,1026.55 1424.7,1142C1424.7,1257.45 1359.19,1351.19 1278.5,1351.19C1197.81,1351.19 1132.3,1257.45 1132.3,1142C1132.3,1026.55 1197.81,932.812 1278.5,932.812ZM1218.53,1141.95C1218.53,1153.01 1219.54,1163.06 1221.56,1172.09C1223.57,1181.12 1226.41,1188.86 1230.06,1195.31C1233.7,1201.76 1238.04,1206.73 1243.06,1210.23C1248.09,1213.74 1253.65,1215.49 1259.74,1215.49C1265.75,1215.49 1271.29,1213.74 1276.36,1210.23C1281.42,1206.73 1285.76,1201.76 1289.37,1195.31C1292.97,1188.86 1295.79,1181.12 1297.8,1172.09C1299.82,1163.06 1300.83,1153.01 1300.83,1141.95C1300.83,1130.9 1299.82,1120.85 1297.8,1111.82C1295.79,1102.79 1292.97,1095.08 1289.37,1088.69C1285.76,1082.31 1281.42,1077.36 1276.36,1073.86C1271.29,1070.36 1265.75,1068.61 1259.74,1068.61C1253.65,1068.61 1248.09,1070.36 1243.06,1073.86C1238.04,1077.36 1233.7,1082.31 1230.06,1088.69C1226.41,1095.08 1223.57,1102.79 1221.56,1111.82C1219.54,1120.85 1218.53,1130.9 1218.53,1141.95ZM1243.52,1141.95C1243.52,1135.93 1243.9,1130.37 1244.67,1125.28C1245.45,1120.18 1246.54,1115.82 1247.96,1112.19C1249.38,1108.57 1251.07,1105.74 1253.05,1103.71C1255.02,1101.69 1257.25,1100.67 1259.74,1100.67C1262.15,1100.67 1264.36,1101.69 1266.38,1103.71C1268.39,1105.74 1270.09,1108.57 1271.46,1112.19C1272.84,1115.82 1273.91,1120.18 1274.68,1125.28C1275.46,1130.37 1275.84,1135.93 1275.84,1141.95C1275.84,1148.1 1275.46,1153.69 1274.68,1158.72C1273.91,1163.76 1272.84,1168.12 1271.46,1171.81C1270.09,1175.5 1268.39,1178.35 1266.38,1180.38C1264.36,1182.41 1262.15,1183.42 1259.74,1183.42C1257.25,1183.42 1255.02,1182.41 1253.05,1180.38C1251.07,1178.35 1249.38,1175.5 1247.96,1171.81C1246.54,1168.12 1245.45,1163.76 1244.67,1158.72C1243.9,1153.69 1243.52,1148.1 1243.52,1141.95ZM1175.2,1103.16L1175.2,1211.52L1200.45,1211.52L1200.45,1072.57L1161.04,1072.57L1161.04,1103.16L1175.2,1103.16ZM1313.66,1141.86C1313.66,1152.92 1314.67,1162.96 1316.69,1171.99C1318.71,1181.02 1321.54,1188.76 1325.19,1195.21C1328.84,1201.66 1333.17,1206.64 1338.2,1210.14C1343.22,1213.64 1348.78,1215.39 1354.88,1215.39C1360.89,1215.39 1366.43,1213.64 1371.49,1210.14C1376.56,1206.64 1380.89,1201.66 1384.5,1195.21C1388.11,1188.76 1390.92,1181.02 1392.94,1171.99C1394.96,1162.96 1395.96,1152.92 1395.96,1141.86C1395.96,1130.8 1394.96,1120.76 1392.94,1111.73C1390.92,1102.7 1388.11,1094.99 1384.5,1088.6C1380.89,1082.21 1376.56,1077.27 1371.49,1073.77C1366.43,1070.27 1360.89,1068.51 1354.88,1068.51C1348.78,1068.51 1343.22,1070.27 1338.2,1073.77C1333.17,1077.27 1328.84,1082.21 1325.19,1088.6C1321.54,1094.99 1318.71,1102.7 1316.69,1111.73C1314.67,1120.76 1313.66,1130.8 1313.66,1141.86ZM1338.65,1141.86C1338.65,1135.84 1339.04,1130.28 1339.81,1125.18C1340.58,1120.09 1341.68,1115.72 1343.09,1112.1C1344.51,1108.47 1346.21,1105.65 1348.18,1103.62C1350.15,1101.59 1352.39,1100.58 1354.88,1100.58C1357.28,1100.58 1359.49,1101.59 1361.51,1103.62C1363.53,1105.65 1365.23,1108.47 1366.6,1112.1C1367.97,1115.72 1369.05,1120.09 1369.82,1125.18C1370.59,1130.28 1370.98,1135.84 1370.98,1141.86C1370.98,1148.01 1370.59,1153.6 1369.82,1158.63C1369.05,1163.67 1367.97,1168.03 1366.6,1171.72C1365.23,1175.4 1363.53,1178.26 1361.51,1180.29C1359.49,1182.31 1357.28,1183.33 1354.88,1183.33C1352.39,1183.33 1350.15,1182.31 1348.18,1180.29C1346.21,1178.26 1344.51,1175.4 1343.09,1171.72C1341.68,1168.03 1340.58,1163.67 1339.81,1158.63C1339.04,1153.6 1338.65,1148.01 1338.65,1141.86Z"/>
        </g>
    </g>
</svg>
