<?xml version="1.0" encoding="UTF-8" standalone="no"?>
<!DOCTYPE svg PUBLIC "-//W3C//DTD SVG 1.1//EN" "http://www.w3.org/Graphics/SVG/1.1/DTD/svg11.dtd">
<svg width="100%" height="100%" viewBox="0 0 640 598" version="1.1" xmlns="http://www.w3.org/2000/svg" xmlns:xlink="http://www.w3.org/1999/xlink" xml:space="preserve" xmlns:serif="http://www.serif.com/" style="fill-rule:evenodd;clip-rule:evenodd;stroke-linejoin:round;stroke-miterlimit:2;">
    <g transform="matrix(1,0,0,1,-2202.64,-489.196)">
        <g transform="matrix(1,0,0,1,872,-1.13687e-13)">
            <path d="M1467.76,726.683L1330.64,489.196L1536.26,489.196L1625.78,644.252C1562.82,650.666 1506.99,681.303 1467.76,726.683ZM1675.22,644.252L1764.74,489.196L1970.36,489.196L1833.25,726.683C1794.01,681.303 1738.18,650.666 1675.22,644.252Z"/>
        </g>
        <g transform="matrix(0.997537,0,0,0.997537,1411.24,-53.1847)">
            <path d="M1114,737C1226.04,737 1317,827.961 1317,940C1317,1052.04 1226.04,1143 1114,1143C1001.96,1143 911,1052.04 911,940C911,827.961 1001.96,737 1114,737ZM1195.13,1043.45L1195.13,999.079L1129.91,999.079L1163.32,967.802C1173.66,958 1181.19,948.421 1185.91,939.064C1190.63,929.708 1193,919.505 1193,908.456C1193,898.119 1191.03,888.54 1187.11,879.718C1183.19,870.896 1177.76,863.278 1170.81,856.862C1163.86,850.446 1155.61,845.456 1146.08,841.892C1136.54,838.327 1126.16,836.545 1114.94,836.545C1103.53,836.545 1093.06,838.416 1083.53,842.159C1073.99,845.902 1065.75,851.248 1058.8,858.199C1051.85,865.149 1046.46,873.436 1042.62,883.06C1038.79,892.683 1036.88,903.376 1036.88,915.139L1094.08,915.139C1093.55,911.396 1093.28,908.545 1093.28,906.584C1093.28,899.634 1095.29,893.842 1099.3,889.208C1103.31,884.575 1108.88,882.258 1116.01,882.258C1119.75,882.258 1123,882.926 1125.76,884.263C1128.53,885.599 1130.89,887.382 1132.85,889.609C1134.81,891.837 1136.28,894.377 1137.26,897.228C1138.24,900.079 1138.73,903.02 1138.73,906.05C1138.73,908.901 1138.28,912.376 1137.39,916.475C1136.5,920.574 1134.23,925.921 1130.57,932.515C1126.92,939.109 1121.35,947.173 1113.87,956.708C1106.38,966.242 1096.05,977.871 1082.86,991.594L1032.87,1043.45L1195.13,1043.45Z"/>
        </g>
    </g>
</svg>
