<?xml version="1.0" encoding="UTF-8" standalone="no"?>
<!DOCTYPE svg PUBLIC "-//W3C//DTD SVG 1.1//EN" "http://www.w3.org/Graphics/SVG/1.1/DTD/svg11.dtd">
<svg width="100%" height="100%" viewBox="0 0 640 598" version="1.1" xmlns="http://www.w3.org/2000/svg" xmlns:xlink="http://www.w3.org/1999/xlink" xml:space="preserve" xmlns:serif="http://www.serif.com/" style="fill-rule:evenodd;clip-rule:evenodd;stroke-linejoin:round;stroke-miterlimit:2;">
    <g transform="matrix(1,0,0,1,-1330.64,-1317.2)">
        <g>
            <g transform="matrix(1,0,0,1,0,828)">
                <path d="M1467.76,726.683L1330.64,489.196L1536.26,489.196L1625.78,644.252C1562.82,650.666 1506.99,681.303 1467.76,726.683ZM1675.22,644.252L1764.74,489.196L1970.36,489.196L1833.25,726.683C1794.01,681.303 1738.18,650.666 1675.22,644.252Z"/>
            </g>
            <g transform="matrix(0.997537,0,0,0.997537,539.244,774.815)">
                <path d="M1114,737C1226.04,737 1317,827.961 1317,940C1317,1052.04 1226.04,1143 1114,1143C1001.96,1143 911,1052.04 911,940C911,827.961 1001.96,737 1114,737ZM1174.82,959.247L1174.82,839.218L1105.85,839.218L1028.86,965.663L1028.86,999.346L1126.16,999.346L1126.16,1040.78L1174.82,1040.78L1174.82,999.346L1199.14,999.346L1199.14,959.247L1174.82,959.247ZM1126.16,959.247L1079.92,959.247L1126.16,879.852L1126.16,959.247Z"/>
            </g>
        </g>
    </g>
</svg>
