<?xml version="1.0" encoding="UTF-8" standalone="no"?>
<!DOCTYPE svg PUBLIC "-//W3C//DTD SVG 1.1//EN" "http://www.w3.org/Graphics/SVG/1.1/DTD/svg11.dtd">
<svg width="100%" height="100%" viewBox="0 0 640 598" version="1.1" xmlns="http://www.w3.org/2000/svg" xmlns:xlink="http://www.w3.org/1999/xlink" xml:space="preserve" xmlns:serif="http://www.serif.com/" style="fill-rule:evenodd;clip-rule:evenodd;stroke-linejoin:round;stroke-miterlimit:2;">
    <g transform="matrix(1,0,0,1,-2533.64,-1712.2)">
        <g transform="matrix(1,0,0,1,1203,134)">
            <g transform="matrix(1,0,0,1,0,1089)">
                <path d="M1467.76,726.683L1330.64,489.196L1536.26,489.196L1625.78,644.252C1562.82,650.666 1506.99,681.303 1467.76,726.683ZM1675.22,644.252L1764.74,489.196L1970.36,489.196L1833.25,726.683C1794.01,681.303 1738.18,650.666 1675.22,644.252Z"/>
            </g>
            <g transform="matrix(0.997537,0,0,0.997537,539.244,1035.82)">
                <path d="M1114,737C1226.04,737 1317,827.961 1317,940C1317,1052.04 1226.04,1143 1114,1143C1001.96,1143 911,1052.04 911,940C911,827.961 1001.96,737 1114,737ZM1167.06,836.412L1106.38,836.412L1059.6,893.084C1049.09,905.916 1041.29,918.97 1036.21,932.248C1031.13,945.525 1028.59,957.866 1028.59,969.272C1028.59,979.43 1030.55,989.01 1034.47,998.01C1038.39,1007.01 1044.05,1014.9 1051.45,1021.67C1058.84,1028.44 1067.8,1033.79 1078.31,1037.71C1088.83,1041.63 1100.77,1043.59 1114.13,1043.59C1127.32,1043.59 1139.17,1041.63 1149.69,1037.71C1160.2,1033.79 1169.16,1028.4 1176.55,1021.53C1183.95,1014.67 1189.61,1006.65 1193.53,997.475C1197.45,988.297 1199.41,978.361 1199.41,967.668C1199.41,957.688 1197.72,948.332 1194.33,939.599C1190.94,930.866 1186.22,923.248 1180.16,916.743C1174.1,910.238 1166.98,905.114 1158.78,901.372C1150.58,897.629 1141.58,895.758 1131.78,895.758C1129.28,895.758 1126.43,896.07 1123.22,896.693C1120.02,897.317 1115.92,899.144 1110.93,902.173L1109.86,902.173L1167.06,836.412ZM1080.45,968.737C1080.45,964.104 1081.34,959.782 1083.12,955.772C1084.91,951.762 1087.31,948.243 1090.34,945.213C1093.37,942.183 1096.89,939.777 1100.9,937.995C1104.91,936.213 1109.23,935.322 1113.87,935.322C1118.5,935.322 1122.82,936.213 1126.83,937.995C1130.84,939.777 1134.36,942.183 1137.39,945.213C1140.42,948.243 1142.83,951.762 1144.61,955.772C1146.39,959.782 1147.28,964.104 1147.28,968.737C1147.28,973.371 1146.39,977.693 1144.61,981.703C1142.83,985.713 1140.42,989.232 1137.39,992.262C1134.36,995.292 1130.84,997.698 1126.83,999.48C1122.82,1001.26 1118.5,1002.15 1113.87,1002.15C1109.23,1002.15 1104.91,1001.26 1100.9,999.48C1096.89,997.698 1093.37,995.292 1090.34,992.262C1087.31,989.232 1084.91,985.713 1083.12,981.703C1081.34,977.693 1080.45,973.371 1080.45,968.737Z"/>
            </g>
        </g>
    </g>
</svg>
